<?xml version="1.0" encoding="utf-8"?><svg xmlns="http://www.w3.org/2000/svg" xmlns:xlink="http://www.w3.org/1999/xlink"><symbol viewBox="0 0 512 512" id="ad-clock" xmlns="http://www.w3.org/2000/svg"><path d="M256 0c-8.284 0-15 6.716-15 15s6.716 15 15 15c124.617 0 226 101.383 226 226S380.617 482 256 482 30 380.617 30 256c0-60.357 25.37-118.632 69.017-161.036V121c0 8.284 6.716 15 15 15S129 129.284 129 121V61c0-8.284-6.699-15-14.983-15H53.5c-8.284 0-15 6.716-15 15s6.716 14.9 15 14.9h22.012C27.008 124.322 0 189.079 0 256c0 140.74 115.209 256 256 256 140.74 0 256-115.209 256-256C512 115.26 396.791 0 256 0z"/><path d="M256 91c-90.975 0-165 74.049-165 165 0 90.981 74.055 165 165 165 90.975 0 165-74.049 165-165 0-90.981-74.055-165-165-165zm105.429 249.216l-9.969-9.97c-5.857-5.858-15.355-5.858-21.213 0-5.858 5.858-5.858 15.355 0 21.213l9.97 9.97C320.792 376.976 297 387.274 271 390.162V376c0-8.284-6.716-15-15-15s-15 6.716-15 15v14.162c-26-2.888-49.792-13.186-69.216-28.733l9.97-9.97c5.858-5.858 5.858-15.355 0-21.213-5.857-5.858-15.355-5.858-21.213 0l-9.97 9.97C135.024 320.792 124.725 297 121.838 271H136c8.284 0 15-6.716 15-15s-6.716-15-15-15h-14.162c2.888-26 13.186-49.792 28.733-69.216l9.97 9.97c5.857 5.858 15.356 5.858 21.213 0 5.858-5.858 5.858-15.355 0-21.213l-9.97-9.97C191.208 135.024 215 124.726 241 121.838V136c0 8.284 6.716 15 15 15s15-6.716 15-15v-14.162c26 2.888 49.792 13.186 69.216 28.733l-9.97 9.97c-5.858 5.858-5.858 15.355 0 21.213 5.857 5.858 15.356 5.858 21.213 0l9.969-9.97C376.976 191.208 387.275 215 390.162 241H376c-8.284 0-15 6.716-15 15s6.716 14.9 15 14.9h14.162a134.698 134.698 0 0 1-28.733 69.316z"/><path d="M296.607 275.393L271 249.787V196c0-8.284-6.716-15-15-15s-15 6.716-15 15v60a15 15 0 0 0 4.394 10.606l30 30c5.857 5.858 15.356 5.858 21.213 0 5.858-5.858 5.858-15.355 0-21.213z"/></symbol><symbol viewBox="0 0 512 512" id="ad-user" xmlns="http://www.w3.org/2000/svg"><path d="M256 0c-49.629 0-90 41.371-90 91s40.371 90 90 90 90-40.371 90-90-40.371-91-90-91zm30 181h-60c-21.158 0-41.603 5.469-60.19 14.773 31.569 8.518 61.293 20.786 90.19 37.372 28.898-16.586 58.621-28.854 90.19-37.372C327.603 186.469 307.158 181 286 181zm196 90c-16.569 0-30 13.431-30 30v60c0 16.567 13.431 30 30 30 16.569 0 30-13.433 30-30v-60c0-16.569-13.431-30-30-30zm-452 0c-16.569 0-30 13.431-30 30v60c0 16.567 13.431 30 30 30 16.569 0 30-13.433 30-30v-60c0-16.569-13.431-30-30-30z"/><path d="M45 211c-8.291 0-15 6.709-15 15v15c33.091 0 60 26.909 60 60v60c0 33.091-26.909 60-60 60v15c0 8.291 6.709 15 15 15 76.901 0 138.39 24.286 196 61V259.594C183.13 226.414 120.903 211 45 211zm437 30v-15c0-8.291-6.709-15-15-15-75.903 0-138.13 15.414-196 48.594V512c57.61-36.714 119.099-61 196-61 8.291 0 15-6.709 15-15v-15c-33.091 0-60-26.909-60-60v-60c0-33.091 26.909-60 60-60z"/></symbol><symbol viewBox="0 0 511.999 511.999" id="agreement" xmlns="http://www.w3.org/2000/svg"><path d="M443.255 397.403V64.439C443.255 28.907 414.348 0 378.816 0H70.153C34.621 0 5.714 28.907 5.714 64.439v50.157h98.878V447.56c0 35.532 28.907 64.439 64.439 64.439h272.815c35.532 0 64.439-28.907 64.439-64.439v-50.157h-63.03zM104.592 84.597H35.714V64.439C35.714 45.449 51.163 30 70.153 30s34.439 15.449 34.439 34.439v20.158zm98.878 362.964c0 18.99-15.449 34.439-34.439 34.439s-34.439-15.449-34.439-34.439V64.439c0-12.66-3.685-24.469-10.016-34.439h254.24c18.989 0 34.438 15.449 34.438 34.439v332.964H203.47v50.158zm272.816 0c0 18.99-15.449 34.439-34.439 34.439H223.475a64.057 64.057 0 0 0 9.995-34.439v-20.157h242.816v20.157z"/><path d="M164.59 98.88h218.66v30H164.59zm0 68.11h218.66v30H164.59zm109.334 68.115c-29.649 0-53.771 24.121-53.771 53.771 0 24.443 16.4 45.115 38.771 51.626v28.052h30v-28.052c22.37-6.511 38.771-27.182 38.771-51.626-.001-29.649-24.122-53.771-53.771-53.771zm0 77.541c-13.107 0-23.771-10.663-23.771-23.771s10.664-23.771 23.771-23.771 23.771 10.663 23.771 23.771-10.664 23.771-23.771 23.771z"/></symbol><symbol viewBox="0 0 463 463" id="assembly" xmlns="http://www.w3.org/2000/svg"><path d="M423.5 316h-.5v-24.5a7.5 7.5 0 0 0-7.5-7.5H407v-54.396c0-13.989-9.395-26.444-22.847-30.289L359 192.129v-11.531c5.054-4.43 8-10.831 8-17.66V139h8.5c4.142 0 7.5-3.357 7.5-7.5s-3.358-7.5-7.5-7.5h-.5v-.5c0-23.639-17.36-43.295-40-46.902V75.5c0-4.143-3.358-7.5-7.5-7.5s-7.5 3.357-7.5 7.5v1.098c-22.64 3.607-40 23.263-40 46.902v.5h-.5c-4.142 0-7.5 3.357-7.5 7.5s3.358 7.5 7.5 7.5h8.5v23.937a23.44 23.44 0 0 0 8 17.659v11.532l-25.155 7.187C257.395 203.159 248 215.614 248 229.604V316h-9v-40.5a7.5 7.5 0 0 0-7.5-7.5H215v-38.396c0-13.989-9.395-26.444-22.847-30.289L167 192.129v-11.531c5.054-4.43 8-10.831 8-17.66V139h8.5c4.142 0 7.5-3.357 7.5-7.5s-3.358-7.5-7.5-7.5h-.5v-.5c0-23.639-17.36-43.295-40-46.902V75.5c0-4.143-3.358-7.5-7.5-7.5s-7.5 3.357-7.5 7.5v1.098c-22.64 3.607-40 23.263-40 46.902v.5h-.5c-4.142 0-7.5 3.357-7.5 7.5s3.358 7.5 7.5 7.5H96v23.937a23.44 23.44 0 0 0 8 17.659v11.532l-25.155 7.187C65.395 203.159 56 215.614 56 229.604V316H39.5C17.72 316 0 333.72 0 355.5S17.72 395 39.5 395h384c21.78 0 39.5-17.72 39.5-39.5S445.28 316 423.5 316zm-15.5 0h-81v-17h81v17zm-113 0v-72.5a.5.5 0 0 1 .5-.5h64a.5.5 0 0 1 .5.5V284h-40.5a7.5 7.5 0 0 0-7.5 7.5V316h-17zm16.312-124.945A23.43 23.43 0 0 0 324.347 195h6.312c4.654 0 9.162-1.365 13.037-3.947l.306-.204v6.955c0 .072-.002.145 0 .216v1.983c-1.424 1.289-6.962 3.997-16.5 3.997s-15.076-2.708-16.5-3.997v-9.156l.31.208zM303 228v-15.215c5.588 3.898 14.175 6.215 24.5 6.215s18.912-2.317 24.5-6.215V228h-49zm89 1.604V284h-17v-40.5c0-5.827-3.235-10.908-8-13.555v-19.931l13.033 3.723c7.046 2.014 11.967 8.538 11.967 15.867zM360 123.5v.5h-25V91.883c14.315 3.396 25 16.278 25 31.617zm-65 0c0-15.339 10.685-28.221 25-31.617V124h-25v-.5zm57 15.5v23.938a8.483 8.483 0 0 1-3.785 7.072l-12.841 8.562a8.474 8.474 0 0 1-4.716 1.429h-6.312a8.472 8.472 0 0 1-4.715-1.427l-12.846-8.563a8.483 8.483 0 0 1-3.786-7.073V139H352zm-89 90.604c0-7.328 4.921-13.853 11.967-15.866L288 210.013v19.932c-4.765 2.647-8 7.728-8 13.555V316h-17v-86.396zM224 316h-81v-33h81v33zm-121 0v-72.5a.5.5 0 0 1 .5-.5h64a.5.5 0 0 1 .5.5V268h-32.5a7.5 7.5 0 0 0-7.5 7.5V316h-25zm16.312-124.945A23.43 23.43 0 0 0 132.347 195h6.312c4.654 0 9.162-1.365 13.037-3.947l.306-.204v6.955c0 .072-.002.145 0 .216v1.983c-1.424 1.289-6.962 3.997-16.5 3.997s-15.076-2.708-16.5-3.997v-9.156l.31.208zM111 228v-15.215c5.588 3.898 14.175 6.215 24.5 6.215s18.912-2.317 24.5-6.215V228h-49zm89 1.604V268h-17v-24.5c0-5.827-3.235-10.908-8-13.555v-19.931l13.033 3.723c7.046 2.014 11.967 8.538 11.967 15.867zM168 123.5v.5h-25V91.883c14.315 3.396 25 16.278 25 31.617zm-65 0c0-15.339 10.685-28.221 25-31.617V124h-25v-.5zm57 15.5v23.938a8.483 8.483 0 0 1-3.785 7.072l-12.841 8.562a8.474 8.474 0 0 1-4.716 1.429h-6.312a8.472 8.472 0 0 1-4.715-1.427l-12.846-8.563a8.483 8.483 0 0 1-3.786-7.073V139H160zm-89 90.604c0-7.328 4.921-13.853 11.967-15.866L96 210.013v19.932c-4.765 2.647-8 7.728-8 13.555V316H71v-86.396zM423.5 380h-384C25.991 380 15 369.01 15 355.5S25.991 331 39.5 331h384c13.509 0 24.5 10.99 24.5 24.5S437.009 380 423.5 380z"/><path d="M231.5 341c-7.995 0-14.5 6.505-14.5 14.5s6.505 14.5 14.5 14.5 14.5-6.505 14.5-14.5-6.505-14.5-14.5-14.5zm-48 0c-7.995 0-14.5 6.505-14.5 14.5s6.505 14.5 14.5 14.5 14.5-6.505 14.5-14.5-6.505-14.5-14.5-14.5zm-48 0c-7.995 0-14.5 6.505-14.5 14.5s6.505 14.5 14.5 14.5 14.5-6.505 14.5-14.5-6.505-14.5-14.5-14.5zm-96 0c-7.995 0-14.5 6.505-14.5 14.5S31.505 370 39.5 370 54 363.495 54 355.5 47.495 341 39.5 341zm48 0c-7.995 0-14.5 6.505-14.5 14.5S79.505 370 87.5 370s14.5-6.505 14.5-14.5S95.495 341 87.5 341zm336 0c-7.995 0-14.5 6.505-14.5 14.5s6.505 14.5 14.5 14.5 14.5-6.505 14.5-14.5-6.505-14.5-14.5-14.5zm-48 0c-7.995 0-14.5 6.505-14.5 14.5s6.505 14.5 14.5 14.5 14.5-6.505 14.5-14.5-6.505-14.5-14.5-14.5zm-96 0c-7.995 0-14.5 6.505-14.5 14.5s6.505 14.5 14.5 14.5 14.5-6.505 14.5-14.5-6.505-14.5-14.5-14.5zm48 0c-7.995 0-14.5 6.505-14.5 14.5s6.505 14.5 14.5 14.5 14.5-6.505 14.5-14.5-6.505-14.5-14.5-14.5z"/></symbol><symbol viewBox="0 0 512.003 512.003" id="calc-price" xmlns="http://www.w3.org/2000/svg"><path d="M477.958 262.633a15.004 15.004 0 0 1 0-13.263l19.096-39.065c10.632-21.751 2.208-47.676-19.178-59.023l-38.41-20.38a15.005 15.005 0 0 1-7.796-10.729l-7.512-42.829c-4.183-23.846-26.241-39.87-50.208-36.479l-43.053 6.09a15.004 15.004 0 0 1-12.613-4.099l-31.251-30.232c-17.401-16.834-44.661-16.835-62.061 0L193.72 42.859a15.01 15.01 0 0 1-12.613 4.099l-43.053-6.09c-23.975-3.393-46.025 12.633-50.208 36.479l-7.512 42.827a15.008 15.008 0 0 1-7.795 10.73l-38.41 20.38c-21.386 11.346-29.81 37.273-19.178 59.024l19.095 39.064a15.004 15.004 0 0 1 0 13.263L14.95 301.699c-10.632 21.751-2.208 47.676 19.178 59.023l38.41 20.38a15.005 15.005 0 0 1 7.796 10.729l7.512 42.829c3.808 21.708 22.422 36.932 43.815 36.93 2.107 0 4.245-.148 6.394-.452l43.053-6.09a15 15 0 0 1 12.613 4.099l31.251 30.232c8.702 8.418 19.864 12.626 31.03 12.625 11.163-.001 22.332-4.209 31.03-12.625l31.252-30.232c3.372-3.261 7.968-4.751 12.613-4.099l43.053 6.09c23.978 3.392 46.025-12.633 50.208-36.479l7.513-42.827a15.008 15.008 0 0 1 7.795-10.73l38.41-20.38c21.386-11.346 29.81-37.273 19.178-59.024l-19.096-39.065zm-13.923 72.002l-38.41 20.38c-12.246 6.499-20.645 18.057-23.04 31.713l-7.512 42.828a15.038 15.038 0 0 1-16.987 12.342l-43.053-6.09c-13.73-1.945-27.316 2.474-37.281 12.113L266.5 478.152a15.04 15.04 0 0 1-20.997 0l-31.251-30.232c-8.422-8.147-19.432-12.562-30.926-12.562-2.106 0-4.229.148-6.355.449l-43.053 6.09a15.042 15.042 0 0 1-16.987-12.342l-7.513-42.829c-2.396-13.656-10.794-25.215-23.041-31.712l-38.41-20.38a15.037 15.037 0 0 1-6.489-19.969L60.574 275.6c6.088-12.456 6.088-26.742 0-39.198l-19.096-39.065a15.037 15.037 0 0 1 6.489-19.969l38.41-20.38c12.246-6.499 20.645-18.057 23.04-31.713l7.512-42.828a15.038 15.038 0 0 1 16.987-12.342l43.053 6.09c13.725 1.943 27.316-2.474 37.281-12.113l31.252-30.232a15.04 15.04 0 0 1 20.997 0l31.251 30.232c9.965 9.64 23.554 14.056 37.281 12.113l43.053-6.09a15.04 15.04 0 0 1 16.987 12.342l7.512 42.829c2.396 13.656 10.794 25.215 23.041 31.712l38.41 20.38a15.037 15.037 0 0 1 6.489 19.969l-19.096 39.064c-6.088 12.455-6.088 26.743 0 39.198l19.096 39.064a15.039 15.039 0 0 1-6.488 19.972z"/><path d="M363.886 148.116c-5.765-5.766-15.115-5.766-20.881 0l-194.889 194.89c-5.766 5.766-5.766 15.115 0 20.881a14.72 14.72 0 0 0 10.44 4.325c3.778 0 7.558-1.441 10.44-4.325l194.889-194.889c5.768-5.767 5.768-15.115.001-20.882zm-166.945-25c-29.852 0-54.139 24.287-54.139 54.139s24.287 54.139 54.139 54.139 54.139-24.287 54.139-54.139-24.287-54.139-54.139-54.139zm0 78.747c-13.569 0-24.608-11.039-24.608-24.609 0-13.569 11.039-24.608 24.608-24.608s24.609 11.039 24.609 24.608c-.001 13.57-11.04 24.609-24.609 24.609zm118.12 78.747c-29.852 0-54.139 24.287-54.139 54.139s24.287 54.139 54.139 54.139c29.852 0 54.139-24.287 54.139-54.139s-24.287-54.139-54.139-54.139zm0 78.747c-13.569 0-24.609-11.039-24.609-24.608s11.039-24.608 24.609-24.608c13.569 0 24.608 11.039 24.608 24.608s-11.039 24.608-24.608 24.608z"/></symbol><symbol viewBox="0 0 97.16 97.16" id="clock" xmlns="http://www.w3.org/2000/svg"><path d="M48.58 0C21.793 0 0 21.793 0 48.58s21.793 48.58 48.58 48.58 48.58-21.793 48.58-48.58S75.367 0 48.58 0zm0 86.823c-21.087 0-38.244-17.155-38.244-38.243S27.493 10.337 48.58 10.337 86.824 27.492 86.824 48.58 69.667 86.823 48.58 86.823z"/><path d="M73.898 47.08H52.066V20.83a4 4 0 0 0-8 0v30.25a4 4 0 0 0 4 4h25.832a4 4 0 0 0 0-8z"/></symbol><symbol viewBox="0 0 480 480" id="credit" xmlns="http://www.w3.org/2000/svg"><path d="M472 264h-80c-4.416 0-8 3.576-8 8v8h-62.312a39.79 39.79 0 0 0-22.184 6.72L237.576 328h-63.752c-11.336 0-21.864 5.632-28.168 15.088-5.36 8.056-6.888 17.944-4.552 27.128l-98.632-30.832c-6.648-2.496-14.024-2.64-21.192-.24A31.08 31.08 0 0 0 0 368.68a31.045 31.045 0 0 0 19 28.656l174.464 73.816A111.388 111.388 0 0 0 237.096 480h2.032c12.048 0 23.968-1.928 35.568-5.8L384 435.336V448c0 4.424 3.584 8 8 8h80c4.416 0 8-3.576 8-8V272c0-4.424-3.584-8-8-8zm-88 154.352l-114.512 40.72a95.875 95.875 0 0 1-30.36 4.928h-2.032a95.522 95.522 0 0 1-37.4-7.584L25.232 382.6A15.103 15.103 0 0 1 16 368.664c0-6.52 4.16-12.288 10.76-14.488 3.272-1.088 6.856-1.032 10.512.328l115.24 36.032c.104.104.24.176.352.28 3.016 2.832 6.488 5.096 10.312 6.648.16.064.32.112.48.176a33.811 33.811 0 0 0 5.128 1.528c.416.088.824.184 1.248.264 1.944.336 3.912.568 5.936.568H296v-16H175.968c-1.504 0-2.952-.256-4.36-.608-.512-.128-1.008-.312-1.504-.488-.872-.304-1.72-.68-2.528-1.112-.512-.28-1.032-.544-1.52-.872a18.222 18.222 0 0 1-2.544-2.104c-.24-.24-.528-.424-.76-.68a17.91 17.91 0 0 1-2.736-3.992l-2.152-4.304a17.884 17.884 0 0 1 1.12-17.888A17.793 17.793 0 0 1 173.832 344H240a8.044 8.044 0 0 0 4.44-1.344l63.944-42.624A23.83 23.83 0 0 1 321.688 296H384v122.352zM464 440h-64V280h64v160zm-48-288c-17.648 0-32 14.352-32 32s14.352 32 32 32 32-14.352 32-32-14.352-32-32-32zm0 48c-8.824 0-16-7.176-16-16s7.176-16 16-16 16 7.176 16 16-7.176 16-16 16zM304 40c-17.648 0-32 14.352-32 32s14.352 32 32 32 32-14.352 32-32-14.352-32-32-32zm0 48c-8.824 0-16-7.176-16-16s7.176-16 16-16 16 7.176 16 16-7.176 16-16 16zm-29.662 114.343L434.311 42.37l11.314 11.314-159.973 159.973zM128 0C57.424 0 0 57.424 0 128s57.424 128 128 128 128-57.424 128-128S198.576 0 128 0zm0 240c-61.76 0-112-50.24-112-112S66.24 16 128 16s112 50.24 112 112-50.24 112-112 112z"/><path d="M173 153.752l-37-29.6V65.136c13.76 3.576 24 15.992 24 30.864h16c0-23.736-17.336-43.448-40-47.28V32h-16v16.72C97.336 52.544 80 72.256 80 96a8.005 8.005 0 0 0 3 6.248l37 29.6v59.016c-13.76-3.576-24-15.992-24-30.864H80c0 23.736 17.336 43.448 40 47.28V224h16v-16.72c22.664-3.824 40-23.536 40-47.28a8.005 8.005 0 0 0-3-6.248zm-53-42.4L96.208 92.32c1.52-13.216 11.176-23.904 23.792-27.176v46.208zm16 79.504v-46.208l23.792 19.032c-1.52 13.216-11.176 23.904-23.792 27.176zM32 248h16v16H32zm0 32h16v32H32zm176-32h16v16h-16zm0 32h16v32h-16zm-88-8h16v16h-16zm0 32h16v24h-16z"/></symbol><symbol viewBox="0 0 488.152 488.152" id="date" xmlns="http://www.w3.org/2000/svg"><path d="M177.854 269.311c0-6.115-4.96-11.069-11.08-11.069h-38.665c-6.113 0-11.074 4.954-11.074 11.069v38.66c0 6.123 4.961 11.079 11.074 11.079h38.665c6.12 0 11.08-4.956 11.08-11.079v-38.66zm96.629 0c0-6.115-4.961-11.069-11.069-11.069h-38.67c-6.113 0-11.074 4.954-11.074 11.069v38.66c0 6.123 4.961 11.079 11.074 11.079h38.67c6.108 0 11.069-4.956 11.069-11.079v-38.66zm96.634 0c0-6.115-4.961-11.069-11.074-11.069h-38.665c-6.12 0-11.08 4.954-11.08 11.069v38.66c0 6.123 4.96 11.079 11.08 11.079h38.665c6.113 0 11.074-4.956 11.074-11.079v-38.66zM177.854 365.95c0-6.125-4.96-11.075-11.08-11.075h-38.665c-6.113 0-11.074 4.95-11.074 11.075v38.653c0 6.119 4.961 11.074 11.074 11.074h38.665c6.12 0 11.08-4.956 11.08-11.074V365.95zm96.629 0c0-6.125-4.961-11.075-11.069-11.075h-38.67c-6.113 0-11.074 4.95-11.074 11.075v38.653c0 6.119 4.961 11.074 11.074 11.074h38.67c6.108 0 11.069-4.956 11.069-11.074V365.95zm96.634 0c0-6.125-4.961-11.075-11.069-11.075h-38.67c-6.12 0-11.08 4.95-11.08 11.075v38.653c0 6.119 4.96 11.074 11.08 11.074h38.67c6.108 0 11.069-4.956 11.069-11.074V365.95z"/><path d="M440.254 54.354v59.05c0 26.69-21.652 48.198-48.338 48.198h-30.493c-26.688 0-48.627-21.508-48.627-48.198V54.142h-137.44v59.262c0 26.69-21.938 48.198-48.622 48.198H96.235c-26.685 0-48.336-21.508-48.336-48.198v-59.05c-23.323.703-42.488 20.002-42.488 43.723v346.061c0 24.167 19.588 44.015 43.755 44.015h389.82c24.131 0 43.755-19.889 43.755-44.015V98.077c0-23.721-19.164-43.02-42.487-43.723zm-14.163 368.234c0 10.444-8.468 18.917-18.916 18.917H80.144c-10.448 0-18.916-8.473-18.916-18.917V243.835c0-10.448 8.467-18.921 18.916-18.921h327.03c10.448 0 18.916 8.473 18.916 18.921l.001 178.753z"/><path d="M96.128 129.945h30.162c9.155 0 16.578-7.412 16.578-16.567V16.573C142.868 7.417 135.445 0 126.29 0H96.128C86.972 0 79.55 7.417 79.55 16.573v96.805c0 9.155 7.422 16.567 16.578 16.567zm264.907 0h30.162c9.149 0 16.572-7.412 16.572-16.567V16.573C407.77 7.417 400.347 0 391.197 0h-30.162c-9.154 0-16.577 7.417-16.577 16.573v96.805c0 9.155 7.423 16.567 16.577 16.567z"/></symbol><symbol viewBox="0 0 488.152 488.152" id="date-form" xmlns="http://www.w3.org/2000/svg"><path d="M177.854 269.311c0-6.115-4.96-11.069-11.08-11.069h-38.665c-6.113 0-11.074 4.954-11.074 11.069v38.66c0 6.123 4.961 11.079 11.074 11.079h38.665c6.12 0 11.08-4.956 11.08-11.079v-38.66zm96.629 0c0-6.115-4.961-11.069-11.069-11.069h-38.67c-6.113 0-11.074 4.954-11.074 11.069v38.66c0 6.123 4.961 11.079 11.074 11.079h38.67c6.108 0 11.069-4.956 11.069-11.079v-38.66zm96.634 0c0-6.115-4.961-11.069-11.074-11.069h-38.665c-6.12 0-11.08 4.954-11.08 11.069v38.66c0 6.123 4.96 11.079 11.08 11.079h38.665c6.113 0 11.074-4.956 11.074-11.079v-38.66zM177.854 365.95c0-6.125-4.96-11.075-11.08-11.075h-38.665c-6.113 0-11.074 4.95-11.074 11.075v38.653c0 6.119 4.961 11.074 11.074 11.074h38.665c6.12 0 11.08-4.956 11.08-11.074V365.95zm96.629 0c0-6.125-4.961-11.075-11.069-11.075h-38.67c-6.113 0-11.074 4.95-11.074 11.075v38.653c0 6.119 4.961 11.074 11.074 11.074h38.67c6.108 0 11.069-4.956 11.069-11.074V365.95zm96.634 0c0-6.125-4.961-11.075-11.069-11.075h-38.67c-6.12 0-11.08 4.95-11.08 11.075v38.653c0 6.119 4.96 11.074 11.08 11.074h38.67c6.108 0 11.069-4.956 11.069-11.074V365.95z"/><path d="M440.254 54.354v59.05c0 26.69-21.652 48.198-48.338 48.198h-30.493c-26.688 0-48.627-21.508-48.627-48.198V54.142h-137.44v59.262c0 26.69-21.938 48.198-48.622 48.198H96.235c-26.685 0-48.336-21.508-48.336-48.198v-59.05c-23.323.703-42.488 20.002-42.488 43.723v346.061c0 24.167 19.588 44.015 43.755 44.015h389.82c24.131 0 43.755-19.889 43.755-44.015V98.077c0-23.721-19.164-43.02-42.487-43.723zm-14.163 368.234c0 10.444-8.468 18.917-18.916 18.917H80.144c-10.448 0-18.916-8.473-18.916-18.917V243.835c0-10.448 8.467-18.921 18.916-18.921h327.03c10.448 0 18.916 8.473 18.916 18.921l.001 178.753z"/><path d="M96.128 129.945h30.162c9.155 0 16.578-7.412 16.578-16.567V16.573C142.868 7.417 135.445 0 126.29 0H96.128C86.972 0 79.55 7.417 79.55 16.573v96.805c0 9.155 7.422 16.567 16.578 16.567zm264.907 0h30.162c9.149 0 16.572-7.412 16.572-16.567V16.573C407.77 7.417 400.347 0 391.197 0h-30.162c-9.154 0-16.577 7.417-16.577 16.573v96.805c0 9.155 7.423 16.567 16.577 16.567z"/></symbol><symbol viewBox="0 0 491.1 491.1" id="delivery" xmlns="http://www.w3.org/2000/svg"><path d="M401.5 322.95c-12 0-23.4 4.7-32 13.2-8.6 8.6-13.4 19.8-13.4 31.8s4.7 23.2 13.4 31.8c8.7 8.5 20 13.2 32 13.2 24.6 0 44.6-20.2 44.6-45s-20-45-44.6-45zm0 70c-13.8 0-25.4-11.4-25.4-25s11.6-25 25.4-25c13.6 0 24.6 11.2 24.6 25s-11 25-24.6 25zm11.6-219.9c-1.8-1.7-4.2-2.6-6.7-2.6h-51.3c-5.5 0-10 4.5-10 10v82c0 5.5 4.5 10 10 10h81.4c5.5 0 10-4.5 10-10v-54.9c0-2.8-1.2-5.5-3.3-7.4l-30.1-27.1zm13.4 79.4h-61.4v-62.1h37.4l24 21.6v40.5zm-269.2 70.5c-12 0-23.4 4.7-32 13.2-8.6 8.6-13.4 19.8-13.4 31.8s4.7 23.2 13.4 31.8c8.7 8.5 20 13.2 32 13.2 24.6 0 44.6-20.2 44.6-45s-20-45-44.6-45zm0 70c-13.8 0-25.4-11.4-25.4-25s11.6-25 25.4-25c13.6 0 24.6 11.2 24.6 25s-11 25-24.6 25zm-66.7-57.7H70.5v-26.6c0-5.5-4.5-10-10-10s-10 4.5-10 10v36.6c0 5.5 4.5 10 10 10h30.1c5.5 0 10-4.5 10-10s-4.5-10-10-10zm50.7-54.5c0-5.5-4.5-10-10-10H10c-5.5 0-10 4.5-10 10s4.5 10 10 10h121.3c5.5 0 10-4.4 10-10zm-111-36.1l121.3.7c5.5 0 10-4.4 10.1-9.9.1-5.6-4.4-10.1-9.9-10.1l-121.3-.7h-.1c-5.5 0-10 4.4-10 9.9-.1 5.6 4.4 10.1 9.9 10.1zm20.4-45.4H172c5.5 0 10-4.5 10-10s-4.5-10-10-10H50.7c-5.5 0-10 4.5-10 10s4.5 10 10 10zm436.7-13.5l-71.6-59.3c-1.8-1.5-4-2.3-6.4-2.3h-84.2v-36c0-5.5-4.5-10-10-10H60.5c-5.5 0-10 4.5-10 10v73.2c0 5.5 4.5 10 10 10s10-4.5 10-10v-63.2h234.8v237.1h-82c-5.5 0-10 4.5-10 10s4.5 10 10 10h122.1c5.5 0 10-4.5 10-10s-4.5-10-10-10h-20.1v-191.1h80.6l65.2 54-.7 136.9H460c-5.5 0-10 4.5-10 10s4.5 10 10 10h20.3c5.5 0 10-4.4 10-9.9l.8-151.6c-.1-3-1.4-5.9-3.7-7.8z"/></symbol><symbol viewBox="0 0 426.667 426.667" id="done" xmlns="http://www.w3.org/2000/svg"><path d="M293.333 135.04L190.08 240.213l-52.907-53.12-28.373 28.374 83.413 83.2 133.974-129.92z"/><path d="M213.333 0C95.513 0 0 95.513 0 213.333s95.513 213.333 213.333 213.333 213.333-95.513 213.333-213.333S331.154 0 213.333 0zm0 388.053c-96.495 0-174.72-78.225-174.72-174.72s78.225-174.72 174.72-174.72c96.446.117 174.602 78.273 174.72 174.72 0 96.496-78.224 174.72-174.72 174.72z"/></symbol><symbol viewBox="0 0 496.109 496.109" id="exp" xmlns="http://www.w3.org/2000/svg"><path d="M81.461 132.603c0 23.68 18.727 42.869 41.838 42.869s41.848-19.189 41.848-42.869c0-17.95-10.782-33.304-26.043-39.677l2.616-3.542s10.1-14.657 10.883-15.736c1.789-2.463 4.19-13.776-12.56 1.416-16.736 15.194-45.517-12.88-46.637-9.183-1.146 3.719 16.508 23.503 16.508 23.503l1.835 2.05c-17.495 5.145-30.288 21.599-30.288 41.169zm40.161.773c-7.493-2.135-12.621-5.089-12.621-10.842 0-5.199 4.371-9.271 11.861-10.521v-5.625h6.877v5.199c4.688.177 7.858 1.004 10.168 1.949l-2.045 6.697c-1.808-.653-5.042-2.019-10.097-2.019-4.558 0-6.021 1.649-6.021 3.309 0 1.941 2.444 3.199 8.407 5.093 8.331 2.474 11.712 5.728 11.712 11.058 0 5.259-4.425 9.759-12.479 10.956v6.023h-6.868v-5.626c-4.708-.163-9.267-1.231-11.938-2.537l2.114-6.934c2.955 1.364 7.072 2.602 11.646 2.602 3.983 0 6.727-1.296 6.727-3.66-.005-2.219-2.254-3.642-7.443-5.122zM368.74 83.643c-25.315 0-45.907 20.6-45.907 45.91-.001 25.313 20.591 45.919 45.907 45.919 25.326 0 45.909-20.599 45.909-45.919s-20.584-45.91-45.909-45.91zm0 81.708c-19.755 0-35.809-16.055-35.809-35.807 0-19.746 16.055-35.793 35.809-35.793 19.739 0 35.811 16.047 35.811 35.793-.002 19.753-16.072 35.807-35.811 35.807z"/><path d="M398.087 116.804a5.12 5.12 0 0 0-6.946-2.041l-21.258 11.584-23.905-11.693c-2.549-1.225-5.627-.189-6.854 2.351-1.243 2.537-.19 5.609 2.348 6.838l26.3 12.863a4.98 4.98 0 0 0 2.243.525c.828 0 1.688-.212 2.455-.616l23.568-12.868c2.463-1.352 3.398-4.463 2.049-6.943zm-153.991-14.176c27.891-.535 50.34-23.295 50.34-51.314S271.987.534 244.096 0c-27.891.535-50.34 23.295-50.34 51.314s22.448 50.78 50.34 51.314zm130.783 84.61c-14.824-.008-33.009-.671-41.242-1.692-2.491-3.406-6.239-9.061-9.172-13.484-10.415-15.708-22.816-34.312-36.396-47.196-10.089-9.573-19.177-16.166-30.979-19.367-.045-.008-.092-.008-.142-.016l-12.397 13.016-.455-.458 12.965 85.126-12.387 16.941h-.241l-.337-.461-.337.461h-.241l-12.387-16.941 12.965-85.126-.455.458-12.397-13.016c-.05.008-.097.008-.142.016-11.803 3.201-20.891 9.794-30.979 19.367-13.579 12.885-25.98 31.488-36.396 47.196-2.933 4.424-6.681 10.078-9.172 13.484-8.233 1.021-26.418 1.685-41.242 1.692-11.009.008-19.927 8.938-19.91 19.949.007 11.006 8.925 19.915 19.927 19.915h.017c48.434-.03 56.764-3.945 59.906-5.414 6.297-2.955 10.774-8.424 17.847-18.845v59.162c0 8.518 3.771 18.659 4.645 19.754-.131.998-.142 190.709-.142 190.709 0 13.009 9.243 23.653 22.247 23.641 13.016 0 23.561-10.545 23.554-23.563l-.017-163.802 2.71.005 2.71-.005-.017 163.802c-.007 13.018 10.538 23.563 23.554 23.563 13.004.013 22.247-10.632 22.247-23.641 0 0-.011-189.711-.142-190.709.873-1.095 4.645-11.236 4.645-19.754v-59.162c7.072 10.421 11.55 15.89 17.847 18.845 3.143 1.469 11.473 5.384 59.906 5.414h.017c11.002 0 19.92-8.909 19.927-19.915.015-11.011-8.903-19.942-19.912-19.949z"/></symbol><symbol viewBox="0 0 864 864" id="ficon" xmlns="http://www.w3.org/2000/svg"><path d="M776.1 730.2V384.9c0-46.2-9.3-90.9-27.9-134-18.5-43.1-43.6-80.3-75.1-111.6-31.4-31.5-68.9-56.6-112.6-75.3-43.7-18.9-89.5-28.2-137.4-28.2-63.3 0-121.8 15.8-175.7 47.7-54.1 31.7-96.8 74.4-128.2 128C87.7 265.2 72 323 72 384.9v406.4h633.6V384.9c0-49.2-12.5-95.1-37.5-137.7-25.2-42.6-59.4-76.3-103-101.5-43.6-25-90.9-37.6-142-37.6-50.6 0-97.5 12.5-140.7 37.6-43.1 25.2-77.3 58.9-102.3 101.5-25.2 42.6-37.7 88.4-37.7 137.7v335.9h451.5c5.9 9.5 16.4 15.9 28.5 15.9 18.5 0 33.5-15 33.5-33.5s-15-33.5-33.5-33.5c-12 0-22.6 6.3-28.5 15.9H177.7V384.9c0-42.7 11-82.6 33-119.5 22-37 51.9-66.4 89.6-88.3 37.9-21.9 78.8-32.7 122.8-32.7 44.9 0 86.4 10.9 124.7 32.7 38 21.9 68.1 51.1 90 87.9 21.9 36.9 32.7 76.8 32.7 119.8v371.1H107.2v-371c0-55.4 14.2-107.1 42.4-155.2 28.2-48.1 66.6-86.5 115.3-115C313.7 86.2 366.4 72 423.1 72c57.6 0 111 14.2 159.9 42.7 48.9 28.5 87.5 66.8 115.6 114.6 28.2 47.9 42.2 99.8 42.2 155.5v345.4c-9.5 5.9-15.9 16.4-15.9 28.5 0 18.5 15 33.5 33.5 33.5s33.5-15 33.5-33.5c.1-12-6.3-22.6-15.8-28.5z"/><path d="M212.9 384.9v10.9h193.4V181.1c-106 8.3-193.4 94.4-193.4 203.8zm0 46.4h193.4v219.1H212.9zm228.9-250.1v214.5h193.4v-10.9c.1-110.5-86.8-194.7-193.4-203.6zm0 250.1h193.4v219.1H441.8z"/></symbol><symbol viewBox="0 0 512 512" id="gift" xmlns="http://www.w3.org/2000/svg"><path d="M32 271.692v192c0 17.664 14.368 32 32 32h160v-224H32zm448-128H378.752c7.264-4.96 13.504-9.888 17.856-14.304 25.824-25.952 25.824-68.192 0-94.144-25.088-25.28-68.8-25.216-93.856 0-13.888 13.92-50.688 70.592-45.6 108.448h-2.304c5.056-37.856-31.744-94.528-45.6-108.448-25.088-25.216-68.8-25.216-93.856 0-25.792 25.952-25.792 68.192-.032 94.144 4.384 4.416 10.624 9.344 17.888 14.304H32c-17.632 0-32 14.368-32 32v48c0 8.832 7.168 16 16 16h208v-64h64v64h208c8.832 0 16-7.168 16-16v-48c0-17.632-14.336-32-32-32zm-257.888-1.056s-1.344 1.056-5.92 1.056c-22.112 0-64.32-22.976-78.112-36.864-13.408-13.504-13.408-35.52 0-49.024 6.496-6.528 15.104-10.112 24.256-10.112 9.12 0 17.728 3.584 24.224 10.112 21.568 21.696 43.008 77.12 35.552 84.832zm73.664 1.056c-4.544 0-5.888-1.024-5.888-1.056-7.456-7.712 13.984-63.136 35.552-84.832 12.896-13.024 35.456-13.088 48.48 0 13.44 13.504 13.44 35.52 0 49.024-13.792 13.888-56 36.864-78.144 36.864zm-7.776 128v224h160c17.664 0 32-14.336 32-32v-192H288z"/></symbol><symbol viewBox="0 0 169.063 169.063" id="instagram" xmlns="http://www.w3.org/2000/svg"><path d="M122.406 0H46.654C20.929 0 0 20.93 0 46.655v75.752c0 25.726 20.929 46.655 46.654 46.655h75.752c25.727 0 46.656-20.93 46.656-46.655V46.655C169.063 20.93 148.133 0 122.406 0zm31.657 122.407c0 17.455-14.201 31.655-31.656 31.655H46.654C29.2 154.063 15 139.862 15 122.407V46.655C15 29.201 29.2 15 46.654 15h75.752c17.455 0 31.656 14.201 31.656 31.655v75.752z"/><path d="M84.531 40.97c-24.021 0-43.563 19.542-43.563 43.563 0 24.02 19.542 43.561 43.563 43.561s43.563-19.541 43.563-43.561c0-24.021-19.542-43.563-43.563-43.563zm0 72.123c-15.749 0-28.563-12.812-28.563-28.561 0-15.75 12.813-28.563 28.563-28.563s28.563 12.813 28.563 28.563c0 15.749-12.814 28.561-28.563 28.561zm45.39-84.842c-2.89 0-5.729 1.17-7.77 3.22a11.053 11.053 0 0 0-3.23 7.78c0 2.891 1.18 5.73 3.23 7.78 2.04 2.04 4.88 3.22 7.77 3.22 2.9 0 5.73-1.18 7.78-3.22 2.05-2.05 3.22-4.89 3.22-7.78 0-2.9-1.17-5.74-3.22-7.78-2.04-2.05-4.88-3.22-7.78-3.22z"/></symbol><symbol viewBox="0 0 864 864" id="logo" xmlns="http://www.w3.org/2000/svg"><path d="M776.1 730.2V384.9c0-46.2-9.3-90.9-27.9-134-18.5-43.1-43.6-80.3-75.1-111.6-31.4-31.5-68.9-56.6-112.6-75.3-43.7-18.9-89.5-28.2-137.4-28.2-63.3 0-121.8 15.8-175.7 47.7-54.1 31.7-96.8 74.4-128.2 128C87.7 265.2 72 323 72 384.9v406.4h633.6V384.9c0-49.2-12.5-95.1-37.5-137.7-25.2-42.6-59.4-76.3-103-101.5-43.6-25-90.9-37.6-142-37.6-50.6 0-97.5 12.5-140.7 37.6-43.1 25.2-77.3 58.9-102.3 101.5-25.2 42.6-37.7 88.4-37.7 137.7v335.9h451.5c5.9 9.5 16.4 15.9 28.5 15.9 18.5 0 33.5-15 33.5-33.5s-15-33.5-33.5-33.5c-12 0-22.6 6.3-28.5 15.9H177.7V384.9c0-42.7 11-82.6 33-119.5 22-37 51.9-66.4 89.6-88.3 37.9-21.9 78.8-32.7 122.8-32.7 44.9 0 86.4 10.9 124.7 32.7 38 21.9 68.1 51.1 90 87.9 21.9 36.9 32.7 76.8 32.7 119.8v371.1H107.2v-371c0-55.4 14.2-107.1 42.4-155.2 28.2-48.1 66.6-86.5 115.3-115C313.7 86.2 366.4 72 423.1 72c57.6 0 111 14.2 159.9 42.7 48.9 28.5 87.5 66.8 115.6 114.6 28.2 47.9 42.2 99.8 42.2 155.5v345.4c-9.5 5.9-15.9 16.4-15.9 28.5 0 18.5 15 33.5 33.5 33.5s33.5-15 33.5-33.5c.1-12-6.3-22.6-15.8-28.5z"/><path d="M212.9 384.9v10.9h193.4V181.1c-106 8.3-193.4 94.4-193.4 203.8zm0 46.4h193.4v219.1H212.9zm228.9-250.1v214.5h193.4v-10.9c.1-110.5-86.8-194.7-193.4-203.6zm0 250.1h193.4v219.1H441.8z"/></symbol><symbol viewBox="0 0 550.795 550.795" id="mail" xmlns="http://www.w3.org/2000/svg"><path d="M501.613 491.782c12.381 0 23.109-4.088 32.229-12.16L377.793 323.567a2878.213 2878.213 0 0 0-10.801 7.767c-11.678 8.604-21.156 15.318-28.434 20.129-7.277 4.822-16.959 9.737-29.045 14.755-12.094 5.024-23.361 7.528-33.813 7.528h-.612c-10.453 0-21.72-2.503-33.813-7.528-12.093-5.018-21.775-9.933-29.045-14.755-7.277-4.811-16.75-11.524-28.434-20.129a1351.934 1351.934 0 0 0-10.771-7.809L16.946 479.622c9.119 8.072 19.854 12.16 32.234 12.16h452.433zM31.047 225.299C19.37 217.514 9.015 208.598 0 198.555V435.98l137.541-137.541c-27.516-19.21-62.969-43.562-106.494-73.14zm489.012 0c-41.865 28.336-77.447 52.73-106.75 73.195l137.486 137.492V198.555c-8.815 9.841-19.059 18.751-30.736 26.744z"/><path d="M501.613 59.013H49.181c-15.784 0-27.919 5.33-36.42 15.979C4.253 85.646.006 98.97.006 114.949c0 12.907 5.636 26.892 16.903 41.959 11.267 15.061 23.256 26.891 35.961 35.496 6.965 4.921 27.969 19.523 63.012 43.801a20367.497 20367.497 0 0 1 49.505 34.395 8855.122 8855.122 0 0 1 31.022 21.701c.985.691 2.534 1.799 4.59 3.269 2.215 1.591 5.018 3.61 8.476 6.107 6.659 4.816 12.191 8.709 16.597 11.683 4.4 2.975 9.731 6.298 15.985 9.988 6.249 3.685 12.143 6.456 17.675 8.299 5.533 1.842 10.655 2.766 15.367 2.766h.612c4.711 0 9.834-.924 15.368-2.766 5.531-1.843 11.42-4.608 17.674-8.299 6.248-3.69 11.572-7.02 15.986-9.988 4.406-2.974 9.938-6.866 16.598-11.683 3.451-2.497 6.254-4.517 8.469-6.102a643.575 643.575 0 0 1 4.596-3.274c6.684-4.651 17.1-11.892 31.104-21.616 25.482-17.705 63.01-43.764 112.742-78.281 14.957-10.447 27.453-23.054 37.496-37.803 10.025-14.749 15.051-30.22 15.051-46.408 0-13.525-4.873-25.098-14.598-34.737-9.736-9.627-21.265-14.443-34.584-14.443z"/></symbol><symbol viewBox="0 0 512 512" id="map" xmlns="http://www.w3.org/2000/svg"><path d="M256 0C153.755 0 70.573 83.182 70.573 185.426c0 126.888 165.939 313.167 173.004 321.035 6.636 7.391 18.222 7.378 24.846 0 7.065-7.868 173.004-194.147 173.004-321.035C441.425 83.182 358.244 0 256 0zm0 278.719c-51.442 0-93.292-41.851-93.292-93.293S204.559 92.134 256 92.134s93.291 41.851 93.291 93.293-41.85 93.292-93.291 93.292z"/></symbol><symbol viewBox="0 0 56.48 56.48" id="mastercard" xmlns="http://www.w3.org/2000/svg"><path d="M15.051 25.812c-1.058 0-1.869.34-1.869.34l-.224 1.33s.669-.272 1.682-.272c.575 0 .995.064.995.531 0 .284-.051.389-.051.389s-.453-.037-.663-.037c-1.335 0-2.737.568-2.737 2.287 0 1.354.919 1.663 1.49 1.663 1.089 0 1.559-.706 1.583-.708l-.051.59h1.359l.606-4.25c-.001-1.805-1.574-1.863-2.12-1.863zm-.762 4.938c-.479 0-.604-.365-.604-.583 0-.422.229-.93 1.36-.93.264.001.292.028.336.036.03.26-.162 1.477-1.092 1.477zm5.67-3.513c.217 0 1.054.069 1.054.069l.195-1.362s-.542-.121-1.424-.121c-1.142 0-2.3.456-2.3 2.015 0 1.768 1.932 1.588 1.932 2.334 0 .496-.54.537-.956.537-.721 0-1.369-.246-1.371-.236l-.206 1.351c.037.01.437.188 1.732.188.347 0 2.334.09 2.334-1.961 0-1.918-1.839-1.539-1.839-2.31 0-.384.299-.504.849-.504zm3.247.174h.817l.197-1.452h-.77l.157-.9h-1.543c-.034.033-.911 5.076-.911 5.688 0 .911.511 1.315 1.23 1.308.563-.004 1.002-.16 1.157-.203l.193-1.312c-.106 0-.261.046-.398.046-.537 0-.596-.287-.562-.498l.433-2.677zm6.467-8.424h-2.754c-.37.5-.718 1.032-1.033 1.552h4.913a14.676 14.676 0 0 0-1.126-1.552zm21.488 17.458a.796.796 0 0 0-.075-.1.108.108 0 0 0-.043-.026.157.157 0 0 0 .105-.046.134.134 0 0 0 .016-.17.121.121 0 0 0-.064-.049.38.38 0 0 0-.127-.015h-.174v.505h.082v-.214h.047c.028 0 .051.006.064.018a.454.454 0 0 1 .086.117l.044.08h.101l-.062-.1zm-.182-.182h-.1v-.152h.094a.24.24 0 0 1 .08.009.079.079 0 0 1 .035.026.069.069 0 0 1 .012.039.07.07 0 0 1-.025.057c-.017.013-.05.021-.096.021zM31.634 22.062h-6.607c-.422.799-.702 1.403-.781 1.553h8.014a14.637 14.637 0 0 0-.626-1.553zm-21.341 2.521l-1.521 4.51-.079-4.51H6.441l-1.234 7.349h1.489l.939-5.54.138 5.54h1.063l1.983-5.54-.879 5.54h1.58l1.217-7.349zm29.776 1.229c-1.06 0-1.87.34-1.87.34l-.225 1.33s.67-.272 1.682-.272c.575 0 .996.064.996.531 0 .284-.053.389-.053.389s-.452-.037-.664-.037c-1.334 0-2.735.568-2.735 2.287 0 1.354.92 1.663 1.49 1.663 1.088 0 1.558-.706 1.583-.708l-.051.59h1.358l.606-4.25c.003-1.805-1.571-1.863-2.117-1.863zm-.76 4.938c-.48 0-.604-.365-.604-.583 0-.422.229-.93 1.36-.93.263.001.291.028.336.036.029.26-.164 1.477-1.092 1.477zm11.901.505a.422.422 0 0 0-.176-.174.466.466 0 0 0-.635.64.448.448 0 0 0 .173.175.47.47 0 0 0 .638-.641zm-.065.427a.397.397 0 0 1-.338.198.395.395 0 0 1-.392-.392c0-.067.017-.132.054-.195a.39.39 0 0 1 .676.389z"/><path d="M50.963 31.648a.627.627 0 0 0-.074-.1.115.115 0 0 0-.043-.026.155.155 0 0 0 .104-.046.13.13 0 0 0 .016-.17.142.142 0 0 0-.062-.049.387.387 0 0 0-.128-.015H50.6v.504h.082v-.214h.047c.029 0 .052.006.066.017a.51.51 0 0 1 .086.119l.043.079h.101l-.062-.099zm-.18-.185h-.099v-.153h.092c.04 0 .066.003.082.008a.08.08 0 0 1 .033.027.074.074 0 0 1-.011.096c-.019.017-.05.022-.097.022zm-5.47-5.578c-.691 0-1.204.943-1.204.943l.138-.867h-1.438l-.963 5.982h1.584c.451-2.556.533-4.629 1.604-4.25.189-.988.371-1.371.576-1.788 0 .001-.096-.02-.297-.02zm3.98-1.294l-.333 2.065s-.58-.803-1.49-.803c-1.415.001-2.593 1.706-2.593 3.664 0 1.265.629 2.504 1.913 2.504.925 0 1.437-.645 1.437-.645l-.067.551h1.501l1.18-7.339-1.548.003zm-1.957 5.93c-.556 0-.816-.466-.816-1.198 0-1.197.537-1.986 1.216-1.986.554.001.839.382.839 1.28 0 .815-.403 1.904-1.239 1.904z"/><path d="M55.026 9.939H1.454C.65 9.939 0 10.59 0 11.393v33.695c0 .803.65 1.454 1.454 1.454h53.572c.804 0 1.454-.651 1.454-1.454V11.393c0-.803-.65-1.454-1.454-1.454zm-3.617 26.579a.435.435 0 0 1-.173.175.475.475 0 0 1-.466 0 .469.469 0 0 1 .002-.815.494.494 0 0 1 .231-.06c.079 0 .155.021.229.06a.425.425 0 0 1 .175.174.477.477 0 0 1 .002.466zm1.048-8.277c.002 8.005-6.484 14.497-14.49 14.499a14.436 14.436 0 0 1-9.73-3.749 14.435 14.435 0 0 1-9.717 3.745c-8.001 0-14.495-6.493-14.495-14.495 0-7.97 6.443-14.444 14.402-14.496h.093c3.738 0 7.146 1.418 9.718 3.745a14.443 14.443 0 0 1 9.722-3.748c8.006-.003 14.497 6.486 14.499 14.492-.002.002-.002.003-.002.007z"/><path d="M26.753 37.406c.459.562.945 1.098 1.482 1.584l.037-.031-.001-.001h.003a14.488 14.488 0 0 0 1.472-1.552h-2.993zm1.974-7.956s.203-1 .203-1.407c0-1.017-.506-2.257-2.2-2.257-1.552.001-2.701 1.673-2.701 3.563 0 2.181 1.439 2.699 2.666 2.699 1.132 0 1.63-.254 1.63-.254l.272-1.488s-.861.38-1.639.38c-1.657 0-1.367-1.236-1.367-1.236h3.136zm-1.992-2.279c.871 0 .71.979.71 1.057h-1.713c0-.101.162-1.057 1.003-1.057zm9.23-1.18c.785 0 1.416.441 1.416.441l.252-1.635s-.934-.378-1.738-.378c-1.781 0-3.514 1.546-3.514 4.449 0 1.925.935 3.196 2.777 3.196.52 0 1.35-.211 1.35-.211l.276-1.684s-.756.379-1.276.379c-1.096-.001-1.535-.837-1.535-1.733 0-1.823.942-2.824 1.992-2.824zm-11.147 8.37c.251.539.543 1.052.856 1.552h5.143c.312-.498.593-1.016.844-1.552h-6.843zm7.535-8.474c-.691 0-1.203.943-1.203.943l.139-.867h-1.437l-.963 5.982h1.584c.449-2.555.533-4.629 1.604-4.25.188-.989.369-1.372.574-1.79 0 0-.096-.02-.298-.018z"/></symbol><symbol viewBox="0 0 341.333 341.333" id="menu" xmlns="http://www.w3.org/2000/svg"><path d="M0 277.333h341.333V320H0zm0-128h341.333V192H0zm0-128h341.333V64H0z"/></symbol><symbol viewBox="0 0 809 229" id="mir" xmlns="http://www.w3.org/2000/svg"><style id="austyle3">.aust0,.aust1{fill-rule:evenodd;clip-rule:evenodd;fill:#4db45e}.aust1{fill:url(#auSVGID_1_)}</style><g id="aug5"><path id="aupath7" d="M218 0v.1c-.1 0-31.6-.1-40 30-7.7 27.6-29.4 103.8-30 105.9h-6s-22.2-77.9-30-106C103.6-.1 72 0 72 0H0v229h72V93h6l42 136h50l42-135.9h6V229h72V0h-72z" class="aust0"/></g><g id="aug9"><path id="aupath11" d="M481 0s-21.1 1.9-31 24l-51 112h-6V0h-72v229h68s22.1-2 32-24l50-112h6v136h72V0h-68z" class="aust0"/></g><g id="aug13"><path id="aupath15" d="M581 104v125h72v-73h78c34 0 62.8-21.7 73.5-52H581z" class="aust0"/></g><g id="aug17"><linearGradient y2="47" x2="809" y1="47" x1="570.919" gradientUnits="userSpaceOnUse" id="auSVGID_1_"><stop id="austop20" offset=".3" stop-color="#00b4e6"/><stop id="austop22" offset="1" stop-color="#088ccb"/></linearGradient><path id="aupath24" d="M731 0H570.9c8 43.6 40.7 78.6 83 90 9.6 2.6 19.7 4 30.1 4h123.4c1.1-5.2 1.6-10.5 1.6-16 0-43.1-34.9-78-78-78z" class="aust1"/></g></symbol><symbol viewBox="0 0 478.856 478.856" id="money" xmlns="http://www.w3.org/2000/svg"><path d="M406.872 160.017H6.856A6.848 6.848 0 0 0 0 166.857v192.016a6.848 6.848 0 0 0 6.84 6.856h272.016a6.857 6.857 0 0 0 0-13.712H13.712V173.729H400v17.144a6.848 6.848 0 0 0 6.84 6.856h.016a6.848 6.848 0 0 0 6.856-6.84v-24.016a6.849 6.849 0 0 0-6.84-6.856zm-46.512-31.832l-320-72a6.885 6.885 0 0 0-5.176.896 6.897 6.897 0 0 0-3.024 4.304l-16 72a6.86 6.86 0 0 0 13.392 2.976l14.504-65.288 313.296 70.488a6.857 6.857 0 0 0 3.008-13.376zm-38.856-39.672l-192-80a6.88 6.88 0 0 0-8.8 3.272l-16 32a6.88 6.88 0 1 0 12.304 6.143v.016l13.128-26.272L316.208 101.2a6.874 6.874 0 0 0 5.296-12.687z"/><path d="M326.352 192.017h-63.496a6.857 6.857 0 0 0 0 13.712h63.496a6.857 6.857 0 0 0 0-13.712zm-127.496.456c-38.881 0-70.4 31.519-70.4 70.4.04 38.864 31.536 70.36 70.4 70.4 38.881 0 70.4-31.519 70.4-70.4s-31.519-70.4-70.4-70.4zm0 128c-31.812 0-57.6-25.788-57.6-57.6.035-31.797 25.803-57.565 57.6-57.6 31.812 0 57.6 25.788 57.6 57.6s-25.788 57.6-57.6 57.6zm192-105.6c-42.4 0-88 10.016-88 32v192c0 21.984 45.6 32 88 32s88-10.016 88-32v-192c0-21.984-45.6-32-88-32zm72 223.88c-1.208 4.44-25.2 16.12-72 16.12s-70.792-11.68-72-16v-12.576c17.024 8.576 45.144 12.576 72 12.576s54.984-4.04 72-12.584v12.464zm0-32c-1.208 4.44-25.2 16.12-72 16.12s-70.792-11.68-72-16v-12.576c17.024 8.576 45.144 12.576 72 12.576s54.984-4.04 72-12.584v12.464zm0-32c-1.208 4.44-25.2 16.12-72 16.12s-70.792-11.68-72-16v-12.576c17.024 8.576 45.144 12.576 72 12.576s54.984-4.04 72-12.584v12.464zm0-32c-1.208 4.44-25.2 16.12-72 16.12s-70.792-11.68-72-16v-12.576c17.024 8.576 45.144 12.576 72 12.576s54.984-4.04 72-12.584v12.464zm0-32c-1.208 4.44-25.2 16.12-72 16.12s-70.792-11.68-72-16v-12.576c17.024 8.536 45.144 12.576 72 12.576s54.984-4.04 72-12.584v12.464zm0-32c-1.208 4.44-25.2 16.12-72 16.12s-70.792-11.68-72-16v-12.576c17.024 8.536 45.144 12.576 72 12.576s54.984-4.04 72-12.584v12.464zm-72-15.88c-46.728 0-70.712-11.648-72-15.856v-.048c1.288-4.456 25.272-16.096 72-16.096 46.4 0 70.4 11.472 72 16-1.6 4.528-25.6 16-72 16z"/><path d="M134.856 320.009H74.384l-28.672-31.36v-52l31.664-30.92h57.48a6.857 6.857 0 0 0 0-13.712H74.592a6.863 6.863 0 0 0-4.8 1.944l-35.736 34.856a8.594 8.594 0 0 0-2.064 5.6v56.896a6.86 6.86 0 0 0 1.792 4.624l32.504 35.552a6.855 6.855 0 0 0 5.064 2.232h63.504a6.857 6.857 0 0 0 0-13.712zm68-65.136h-8c-2.488 0-4-1.392-4-2 0-.608 1.512-2 4-2h20a8 8 0 0 0 0-16h-8a8 8 0 0 0-16 0v.36a18.624 18.624 0 0 0-16 17.6c.573 10.489 9.507 18.548 20 18.04h8c2.488 0 4 1.392 4 2 0 .608-1.512 2-4 2h-20a8 8 0 0 0 0 16h8a8 8 0 0 0 16 0v-.36a18.624 18.624 0 0 0 16-17.6c-.573-10.489-9.507-18.548-20-18.04z"/></symbol><symbol viewBox="0 0 348.077 348.077" id="phone" xmlns="http://www.w3.org/2000/svg"><path d="M340.273 275.083l-53.755-53.761c-10.707-10.664-28.438-10.34-39.518.744l-27.082 27.076a792.327 792.327 0 0 1-5.344-2.973c-17.102-9.476-40.509-22.464-65.14-47.113-24.704-24.701-37.704-48.144-47.209-65.257-1.003-1.813-1.964-3.561-2.913-5.221l18.176-18.149 8.936-8.947c11.097-11.1 11.403-28.826.721-39.521L73.39 8.194c-10.682-10.68-28.421-10.356-39.518.744l-15.15 15.237.414.411c-5.08 6.482-9.325 13.958-12.484 22.02C3.74 54.28 1.927 61.603 1.098 68.941-6 127.785 20.89 181.564 93.866 254.541c100.875 100.868 182.167 93.248 185.674 92.876 7.638-.913 14.958-2.738 22.397-5.627 7.992-3.122 15.463-7.361 21.941-12.43l.331.294 15.348-15.029c11.074-11.098 11.393-28.83.716-39.542z"/></symbol><symbol viewBox="0 0 512 512" id="policy" xmlns="http://www.w3.org/2000/svg"><path d="M498.791 161.127c-17.545-17.546-46.094-17.545-63.645.004l-45.128 45.166V87.426c0-12.02-4.681-23.32-13.181-31.819L334.412 13.18C325.913 4.68 314.612 0 302.592 0H45.018c-24.813 0-45 20.187-45 45v422c0 24.813 20.187 45 45 45h300c24.813 0 45-20.187 45-45V333.631L498.79 224.767c17.587-17.586 17.591-46.052.001-63.64zM300.019 30c2.834 0 8.295-.491 13.18 4.393l42.426 42.427c4.76 4.761 4.394 9.978 4.394 13.18h-60V30zm59.999 437c0 8.271-6.728 15-15 15h-300c-8.271 0-15-6.729-15-15V45c0-8.271 6.729-15 15-15h225v75c0 8.284 6.716 15 15 15h75v116.323l-44.256 44.293-21.203 21.204a15 15 0 0 0-3.624 5.863l-21.214 63.64a14.999 14.999 0 1 0 18.974 18.974l63.64-21.213a14.988 14.988 0 0 0 5.863-3.624l1.82-1.82V467zm-33.64-154.573l21.213 21.213-8.103 8.103-31.819 10.606 10.606-31.82 8.103-8.102zm42.422-.005l-21.213-21.213 72.105-72.166 21.213 21.213-72.105 72.166zm108.773-108.864l-15.463 15.476-21.213-21.213 15.468-15.481c5.852-5.849 15.366-5.848 21.214 0 5.847 5.85 5.878 15.333-.006 21.218z"/><path d="M285.018 150h-210c-8.284 0-15 6.716-15 15s6.716 15 15 15h210c8.284 0 15-6.716 15-15s-6.716-15-15-15zm-60 60h-150c-8.284 0-15 6.716-15 15s6.716 15 15 15h150c8.284 0 15-6.716 15-15s-6.716-15-15-15zm0 60h-150c-8.284 0-15 6.716-15 15s6.716 15 15 15h150c8.284 0 15-6.716 15-15s-6.716-15-15-15zm0 60h-150c-8.284 0-15 6.716-15 15s6.716 15 15 15h150c8.284 0 15-6.716 15-15s-6.716-15-15-15zm60 92h-90c-8.284 0-15 6.716-15 15s6.716 15 15 15h90c8.284 0 15-6.716 15-15s-6.716-15-15-15z"/></symbol><symbol viewBox="0 0 512 512" id="qcheck" xmlns="http://www.w3.org/2000/svg"><path d="M468.907 214.604c-11.423 0-20.682 9.26-20.682 20.682v20.831c-.031 54.338-21.221 105.412-59.666 143.812-38.417 38.372-89.467 59.5-143.761 59.5h-.12C132.506 459.365 41.3 368.056 41.364 255.883c.031-54.337 21.221-105.411 59.667-143.813 38.417-38.372 89.468-59.5 143.761-59.5h.12c28.672.016 56.49 5.942 82.68 17.611 10.436 4.65 22.659-.041 27.309-10.474 4.648-10.433-.04-22.659-10.474-27.309-31.516-14.043-64.989-21.173-99.492-21.192h-.144c-65.329 0-126.767 25.428-172.993 71.6C25.536 129.014.038 190.473 0 255.861c-.037 65.386 25.389 126.874 71.599 173.136 46.21 46.262 107.668 71.76 173.055 71.798h.144c65.329 0 126.767-25.427 172.993-71.6 46.262-46.209 71.76-107.668 71.798-173.066v-20.842c0-11.423-9.259-20.683-20.682-20.683z"/><path d="M505.942 39.803c-8.077-8.076-21.172-8.076-29.249 0L244.794 271.701l-52.609-52.609c-8.076-8.077-21.172-8.077-29.248 0-8.077 8.077-8.077 21.172 0 29.249l67.234 67.234a20.616 20.616 0 0 0 14.625 6.058 20.618 20.618 0 0 0 14.625-6.058L505.942 69.052c8.077-8.077 8.077-21.172 0-29.249z"/></symbol><symbol viewBox="0 0 434.168 434.168" id="qcheck-form" xmlns="http://www.w3.org/2000/svg"><path d="M332.318 230.196V34.967H40.93v364.235h134.038c9.616 0 17.483 7.867 17.483 17.483s-7.867 17.483-17.483 17.483H23.446c-9.616 0-17.483-7.867-17.483-17.483V17.483C5.963 7.867 13.831 0 23.446 0H349.8c9.616 0 17.483 7.867 17.483 17.483v212.713c0 9.616-7.867 17.483-17.483 17.483s-17.482-7.867-17.482-17.483zm90.039 42.543c-7.285-6.411-18.357-5.828-24.768 1.457l-95.867 106.648-48.079-46.331c-6.993-6.702-18.066-6.411-24.768.583s-6.411 18.066.583 24.768l61.191 58.86c3.205 3.205 7.576 4.954 12.238 4.954h.583c4.662-.291 9.324-2.331 12.238-5.828l107.814-120.052c6.702-7.576 6.119-18.648-1.165-25.059zM268.212 101.986H110.863c-9.616 0-17.483 7.867-17.483 17.483s7.867 17.483 17.483 17.483h157.349c9.616 0 17.483-7.867 17.483-17.483s-7.867-17.483-17.483-17.483zm17.484 113.641c0-9.616-7.867-17.483-17.483-17.483h-157.35c-9.616 0-17.483 7.867-17.483 17.483s7.867 17.483 17.483 17.483h157.349c9.616 0 17.484-7.867 17.484-17.483zm-174.833 75.761c-9.616 0-17.483 7.867-17.483 17.483s7.867 17.483 17.483 17.483h46.622c9.616 0 17.483-7.867 17.483-17.483s-7.867-17.483-17.483-17.483h-46.622z"/></symbol><symbol viewBox="0 0 31.494 31.494" id="qleft-arrow" xmlns="http://www.w3.org/2000/svg"><path d="M10.273 5.009a1.112 1.112 0 0 1 1.587 0 1.12 1.12 0 0 1 0 1.571l-8.047 8.047h26.554c.619 0 1.127.492 1.127 1.111s-.508 1.127-1.127 1.127H3.813l8.047 8.032c.429.444.429 1.159 0 1.587a1.112 1.112 0 0 1-1.587 0L.321 16.532a1.12 1.12 0 0 1 0-1.571l9.952-9.952z"/></symbol><symbol viewBox="0 0 347.971 347.971" id="security" xmlns="http://www.w3.org/2000/svg"><path d="M317.309 54.367C257.933 54.367 212.445 37.403 173.98 0 135.519 37.403 90.033 54.367 30.662 54.367c0 97.405-20.155 236.937 143.317 293.604 163.484-56.666 143.33-196.198 143.33-293.604zM162.107 225.773l-47.749-47.756 21.379-21.378 26.37 26.376 50.121-50.122 21.378 21.378-71.499 71.502z"/></symbol><symbol viewBox="0 0 512 512" id="site-map" xmlns="http://www.w3.org/2000/svg"><path d="M497 361h-46v-75c0-8.291-6.709-15-15-15H271v-60h105c8.291 0 15-6.709 15-15V15c0-8.291-6.709-15-15-15H136c-8.291 0-15 6.709-15 15v181c0 8.291 6.709 15 15 15h105v60H76c-8.291 0-15 6.709-15 15v75H15c-8.291 0-15 6.709-15 15v121c0 8.291 6.709 15 15 15h121c8.291 0 15-6.709 15-15V376c0-8.291-6.709-15-15-15H91v-60h150v60h-45c-8.291 0-15 6.709-15 15v121c0 8.291 6.709 15 15 15h120c8.291 0 15-6.709 15-15V376c0-8.291-6.709-15-15-15h-45v-60h150v60h-45c-8.291 0-15 6.709-15 15v121c0 8.291 6.709 15 15 15h121c8.291 0 15-6.709 15-15V376c0-8.291-6.709-15-15-15zM196 61h120c8.291 0 15 6.709 15 15s-6.709 15-15 15H196c-8.291 0-15-6.709-15-15s6.709-15 15-15zm0 90c-8.291 0-15-6.709-15-15s6.709-15 15-15h120c8.291 0 15 6.709 15 15s-6.709 15-15 15H196z"/></symbol><symbol viewBox="0 0 501.28 501.28" id="star" xmlns="http://www.w3.org/2000/svg"><path d="M501.28 194.37l-166.02-35.04-84.62-147.06v407.5l154.9 69.24-17.98-168.72zM166.02 159.33L0 194.37l113.72 125.92-17.98 168.72 154.9-69.24V12.27z"/></symbol><symbol viewBox="0 0 475.075 475.075" id="star-b" xmlns="http://www.w3.org/2000/svg"><path d="M475.075 186.573c0-7.043-5.328-11.42-15.992-13.135L315.766 152.6 251.529 22.694c-3.614-7.804-8.281-11.704-13.99-11.704-5.708 0-10.372 3.9-13.989 11.704L159.31 152.6 15.986 173.438C5.33 175.153 0 179.53 0 186.573c0 3.999 2.38 8.567 7.139 13.706l103.924 101.068L86.51 444.096c-.381 2.666-.57 4.575-.57 5.712 0 3.997.998 7.374 2.996 10.136 1.997 2.766 4.993 4.142 8.992 4.142 3.428 0 7.233-1.137 11.42-3.423l128.188-67.386 128.194 67.379c4 2.286 7.806 3.43 11.416 3.43 7.812 0 11.714-4.75 11.714-14.271 0-2.471-.096-4.374-.287-5.716l-24.551-142.744 103.634-101.069c4.948-4.956 7.419-9.526 7.419-13.713zM324.619 288.5l20.551 120.2-107.634-56.821L129.614 408.7l20.843-120.2-87.365-84.799 120.484-17.7 53.959-109.064 53.957 109.064 120.494 17.7-87.367 84.799z"/></symbol><symbol viewBox="0 0 300 300" id="telegram" xmlns="http://www.w3.org/2000/svg"><path d="M5.299 144.645l69.126 25.8 26.756 86.047c1.712 5.511 8.451 7.548 12.924 3.891l38.532-31.412a11.496 11.496 0 0 1 14.013-.391l69.498 50.457c4.785 3.478 11.564.856 12.764-4.926L299.823 29.22c1.31-6.316-4.896-11.585-10.91-9.259L5.218 129.402c-7.001 2.7-6.94 12.612.081 15.243zm91.57 12.066l135.098-83.207c2.428-1.491 4.926 1.792 2.841 3.726L123.313 180.87a23.112 23.112 0 0 0-7.163 13.829l-3.798 28.146c-.503 3.758-5.782 4.131-6.819.494l-14.607-51.325c-1.673-5.854.765-12.107 5.943-15.303z"/></symbol><symbol viewBox="0 0 409.165 409.164" id="user" xmlns="http://www.w3.org/2000/svg"><path d="M204.583 216.671c50.664 0 91.74-48.075 91.74-107.378 0-82.237-41.074-107.377-91.74-107.377-50.668 0-91.74 25.14-91.74 107.377.001 59.303 41.073 107.378 91.74 107.378zm202.581 158.046L360.88 270.454a23.23 23.23 0 0 0-10.465-11.138l-71.83-37.392a4.628 4.628 0 0 0-4.926.415c-20.316 15.366-44.203 23.488-69.076 23.488-24.877 0-48.762-8.122-69.078-23.488a4.635 4.635 0 0 0-4.93-.415L58.75 259.316a23.222 23.222 0 0 0-10.465 11.138L2.001 374.717a23.059 23.059 0 0 0 1.75 22.005 23.056 23.056 0 0 0 19.4 10.526h362.861a23.063 23.063 0 0 0 19.402-10.527 23.063 23.063 0 0 0 1.75-22.004z"/></symbol><symbol id="viber" viewBox="0 0 632 666.4" xmlns="http://www.w3.org/2000/svg"><style>.bhst0{fill:#fff}.st1{fill:#665ca7}.bhst2,.st3{fill:none;stroke:#fff;stroke-width:16.8562;stroke-linecap:round;stroke-linejoin:round}.st3{stroke:#665ca7}</style><path class="bhst0" d="M560.7 65C544.1 49.7 477.2 1.1 328.1.5c0 0-175.8-10.6-261.5 68C18.9 116.2 2.2 186 .4 272.5c-1.8 86.6-4.1 248.7 152.3 292.7h.1l-.1 67.1s-1 27.2 16.9 32.7c21.6 6.7 34.3-13.9 55-36.2 11.3-12.2 27-30.2 38.8-43.9 106.9 9 189.2-11.6 198.5-14.6 21.6-7 143.8-22.7 163.6-184.8 20.6-167.1-9.9-272.8-64.8-320.5zm18.1 308.5C562 509 462.9 517.5 444.6 523.4c-7.8 2.5-80 20.5-170.8 14.5 0 0-67.7 81.6-88.8 102.9-3.3 3.3-7.2 4.7-9.8 4-3.6-.9-4.6-5.2-4.6-11.5.1-9 .6-111.5.6-111.5-.1 0-.1 0 0 0C38.9 485.1 46.7 347 48.1 274.7c1.5-72.3 15.1-131.5 55.4-171.3C176 37.8 325.3 47.6 325.3 47.6c126.1.5 186.6 38.4 200.6 51.2 46.5 39.8 70.2 135.1 52.9 274.7z"/><path class="bhst2" d="M389.5 268.8c-1.6-33.1-18.4-50.4-50.4-52.1m93.6 66.6c.7-30.8-8.4-56.5-27.4-77.2-19-20.7-45.3-32.2-79.1-34.6"/><path class="bhst2" d="M477 300.6c-.4-53.5-16.4-95.5-47.9-126.3-31.5-30.7-70.8-46.3-117.7-46.6"/><path class="bhst0" d="M340.8 381.7s11.9 1 18.2-6.9l12.4-15.6c6-7.8 20.5-12.7 34.7-4.8 7.9 4.5 22.1 13.2 30.9 19.7 9.4 6.9 28.7 23 28.7 23 9.2 7.7 11.3 19.1 5.1 31.1 0 .1-.1.2-.1.2-6.4 11.3-15 22-25.9 31.9l-.2.2c-8.9 7.4-17.7 11.7-26.3 12.7-1 .2-2.3.3-3.8.2-3.8 0-7.5-.5-11.2-1.7l-.3-.4c-13.3-3.7-35.4-13.1-72.3-33.4-24-13.2-43.9-26.7-60.7-40.1-8.9-7-18-15-27.3-24.2l-.9-.9-.9-.9-.9-.9-.9-.9c-9.2-9.3-17.2-18.4-24.2-27.3-13.4-16.8-26.9-36.8-40.1-60.7-20.3-36.9-29.7-59-33.4-72.3l-.4-.3c-1.2-3.7-1.8-7.4-1.7-11.2-.1-1.5 0-2.8.2-3.8 1-8.6 5.3-17.4 12.7-26.3l.2-.2c9.9-10.9 20.5-19.5 31.9-25.9.1 0 .2-.1.2-.1 12-6.2 23.4-4.1 31.1 5.1.1.1 16.1 19.3 23 28.7 6.5 8.9 15.3 23 19.7 30.9 7.9 14.2 3 28.7-4.8 34.7l-15.6 12.4c-7.9 6.4-6.9 18.2-6.9 18.2s23.1 87.7 109.8 109.8z"/></symbol><symbol viewBox="0 0 16.207 16.207" id="visa" xmlns="http://www.w3.org/2000/svg"><path d="M15.279 2.431H.928A.929.929 0 0 0 0 3.359v9.489c0 .512.416.928.928.928h14.351a.929.929 0 0 0 .928-.928v-9.49a.928.928 0 0 0-.928-.927zm-.024 10.392l-14.303.024-.024-9.465 14.327-.024v9.465z"/><path d="M2.303 6.792l.481 3.446h1.181l2.202-4.267H4.926L3.991 7.95c-.132.281-.247.535-.346.768a28.31 28.31 0 0 0-.062-.72l-.189-2.026H1.506l1.963 1.553-1.166-.733zm4.712 3.447l.809-4.267H6.713l-.81 4.267zm.651-.252c.26.195.718.311 1.225.311 1.051 0 1.757-.594 1.757-1.477 0-.483-.282-.866-.861-1.169-.324-.182-.521-.304-.521-.458 0-.144.151-.299.509-.299.349 0 .615.137.666.164l.126.069.355-.95-.093-.052c-.266-.147-.596-.218-1.009-.218-1.006 0-1.709.588-1.709 1.43 0 .61.48.949.902 1.177.396.206.474.323.474.456 0 .256-.276.347-.513.347-.309 0-.631-.087-.884-.239l-.125-.074-.376.926.077.056zm4.054.252l.477-1.043h.962l.084 1.043h1.154l-.5-4.267h-1.291l-2.076 4.267h1.19zm1.16-2.636c.044-.096.089-.206.135-.319l.021.278.065.729h-.54l.319-.688z"/></symbol><symbol viewBox="0 0 304.36 304.36" id="vk" xmlns="http://www.w3.org/2000/svg"><path d="M261.945 175.576c10.096 9.857 20.752 19.131 29.807 29.982 4 4.822 7.787 9.798 10.684 15.394 4.105 7.955.387 16.709-6.746 17.184l-44.34-.02c-11.436.949-20.559-3.655-28.23-11.474-6.139-6.253-11.824-12.908-17.727-19.372-2.42-2.642-4.953-5.128-7.979-7.093-6.053-3.929-11.307-2.726-14.766 3.587-3.523 6.421-4.322 13.531-4.668 20.687-.475 10.441-3.631 13.186-14.119 13.664-22.414 1.057-43.686-2.334-63.447-13.641-17.422-9.968-30.932-24.04-42.691-39.971-22.895-31.021-40.428-65.108-56.186-100.15C-2.01 76.458.584 72.22 9.295 72.07c14.465-.281 28.928-.261 43.41-.02 5.879.086 9.771 3.458 12.041 9.012 7.826 19.243 17.402 37.551 29.422 54.521 3.201 4.518 6.465 9.036 11.113 12.216 5.142 3.521 9.057 2.354 11.476-3.374 1.535-3.632 2.207-7.544 2.553-11.434 1.146-13.383 1.297-26.743-.713-40.079-1.234-8.323-5.922-13.711-14.227-15.286-4.238-.803-3.607-2.38-1.555-4.799 3.564-4.172 6.916-6.769 13.598-6.769h50.111c7.889 1.557 9.641 5.101 10.721 13.039l.043 55.663c-.086 3.073 1.535 12.192 7.07 14.226 4.43 1.448 7.35-2.096 10.008-4.905 11.998-12.734 20.561-27.783 28.211-43.366 3.395-6.852 6.314-13.968 9.143-21.078 2.096-5.276 5.385-7.872 11.328-7.757l48.229.043c1.43 0 2.877.021 4.262.258 8.127 1.385 10.354 4.881 7.844 12.817-3.955 12.451-11.65 22.827-19.174 33.251-8.043 11.129-16.645 21.877-24.621 33.072-7.328 10.223-6.746 15.376 2.357 24.255zm0 0" fill-rule="evenodd" clip-rule="evenodd"/></symbol><symbol viewBox="0 0 30.667 30.667" id="whatsapp" xmlns="http://www.w3.org/2000/svg"><path d="M30.667 14.939c0 8.25-6.74 14.938-15.056 14.938a15.1 15.1 0 0 1-7.276-1.857L0 30.667l2.717-8.017a14.787 14.787 0 0 1-2.159-7.712C.559 6.688 7.297 0 15.613 0c8.315.002 15.054 6.689 15.054 14.939zM15.61 2.382c-6.979 0-12.656 5.634-12.656 12.56 0 2.748.896 5.292 2.411 7.362l-1.58 4.663 4.862-1.545c2 1.312 4.393 2.076 6.963 2.076 6.979 0 12.658-5.633 12.658-12.559C28.27 8.016 22.59 2.382 15.61 2.382zm7.604 15.998c-.094-.151-.34-.243-.708-.427-.367-.184-2.184-1.069-2.521-1.189-.34-.123-.586-.185-.832.182-.243.367-.951 1.191-1.168 1.437-.215.245-.43.276-.799.095-.369-.186-1.559-.57-2.969-1.817-1.097-.972-1.838-2.169-2.052-2.536-.217-.366-.022-.564.161-.746.165-.165.369-.428.554-.643.185-.213.246-.364.369-.609.121-.245.06-.458-.031-.643-.092-.184-.829-1.984-1.138-2.717-.307-.732-.614-.611-.83-.611-.215 0-.461-.03-.707-.03s-.646.089-.983.456-1.291 1.252-1.291 3.054c0 1.804 1.321 3.543 1.506 3.787.186.243 2.554 4.062 6.305 5.528 3.753 1.465 3.753.976 4.429.914.678-.062 2.184-.885 2.49-1.739.308-.858.308-1.593.215-1.746z"/></symbol><symbol viewBox="0 0 30.68 30.68" id="zamer" xmlns="http://www.w3.org/2000/svg"><path d="M24.562 2.313l3.976 4.051-1.309 1.285-1.888-1.922-.779.762 1.888 1.926-.843.825-1.224-1.25-.779.765 1.225 1.25-1.157 1.134-1.888-1.923-.778.764 1.889 1.924-.844.826-1.224-1.25-.78.765 2.316 2.301 8.317-8.162L24.584.172l-8.413 8.255 1.07 1.071zM12.756 19.002l1.426 1.452-1.069 1.047-2.088-2.127-.778.764 2.087 2.127-.842.826-1.424-1.451-.779.765 1.424 1.451-1.156 1.135-2.087-2.127-.78.763 2.088 2.128-.843.828L6.51 25.13l-.777.765 1.424 1.45-1.041 1.023-3.975-4.053 8.865-8.7-1.071-1.069L0 24.294l6.097 6.213 9.939-9.714-2.501-2.556zm-.391-12.938l.009-.008-4.089-4.088-4.806 4.806 4.089 4.089.006-.007 12.669 12.669 7.789 3.422-2.919-8.1L12.365 6.064zM6.784 8.289L5.271 6.775l3.016-3.016L9.8 5.271 6.784 8.289zm18.232 16.655l-4.367-1.906-.576-.578 2.578.154-.435-1.793 1.89.336.021-2.444.416.417 1.664 4.625-1.191 1.189z"/></symbol></svg>