<svg version="1" xmlns="http://www.w3.org/2000/svg" width="933.333" height="933.333" viewBox="0 0 700.000000 700.000000"><path d="M11.5 1.9c-4.8 2.2-7.9 5.4-10 10.3C.2 15.5 0 50.7 0 349.2c0 229.5.3 334.5 1.1 337.1 1.4 5.1 6.1 10.2 11.2 12.2 3.8 1.4 35.3 1.5 339.7 1.3l335.6-.3 4.2-3.4c2.4-1.8 5-4.7 6-6.5 1.6-2.9 1.7-23.5 2-338.1.2-303.9.1-335.4-1.3-339.2-2-5.1-7.1-9.8-12.2-11.2C683.7.3 578.7 0 349 0 26.9 0 15.4.1 11.5 1.9zm628.2 58.4c1.2 1.2 1 579.7-.2 579.8-.5.1-131.2.2-290.2.3-192.1.1-289.4-.2-289.6-.9-.2-.9-.1-576.5.2-579 .1-1.2 578.6-1.4 579.8-.2z"/><path d="M117.8 113.8c-3.1.3-3.8.7-3.8 2.5-.1 3.2-.1 198.6 0 202.9v3.8h209V114h-2.7c-14.9-.3-199.7-.4-202.5-.2zM393.3 113.8l-16.3.2v209h209v-6.3c.1-7.9.1-179.8 0-193.2v-10h-88.3c-48.5 0-95.5.1-104.4.3zM113.9 384.2c-.6 74.1-.2 201.8.6 201.8 1.9.1 190 .1 199.3 0h9.2V377H114l-.1 7.2zM377 481.5V586h7.3c44.8.3 201 0 201.3-.3.4-.3.7-161.2.4-202V377H377v104.5z"/></svg>